<svg id="_LOGO_HEADER_Desktop" data-name="[LOGO] HEADER Desktop" xmlns="http://www.w3.org/2000/svg" xmlns:xlink="http://www.w3.org/1999/xlink" width="134.524" height="98.247" viewBox="0 0 134.524 98.247">
  <defs>
    <clipPath id="clip-path">
      <path id="パス_8" data-name="パス 8" d="M322.7,250.9a37.729,37.729,0,0,1,17.237-12.454A12.067,12.067,0,1,0,322.7,250.9Z" transform="translate(-315.909 -227.985)" fill="#fefefe"/>
    </clipPath>
  </defs>
  <path id="パス_1" data-name="パス 1" d="M322.7,250.9a37.729,37.729,0,0,1,17.237-12.454A12.067,12.067,0,1,0,322.7,250.9Z" transform="translate(-269.767 -211.053)" fill="#fefefe"/>
  <g id="グループ_3" data-name="グループ 3" transform="translate(46.142 16.932)">
    <path id="パス_2" data-name="パス 2" d="M322.7,250.9a37.729,37.729,0,0,1,17.237-12.454A12.067,12.067,0,1,0,322.7,250.9Z" transform="translate(-315.909 -227.985)" fill="#fefefe"/>
    <g id="グループ_2" data-name="グループ 2" clip-path="url(#clip-path)">
      <g id="グループ_1" data-name="グループ 1" transform="translate(-1.399 -2.09)">
        <path id="パス_3" data-name="パス 3" d="M324.746,240.2a1.848,1.848,0,0,0-1.411,0,.814.814,0,0,1-1.205-.4,2.422,2.422,0,0,0-.469-.512,2.382,2.382,0,0,0-.639-.3.818.818,0,0,1-.754-1.029,2.377,2.377,0,0,0-.084-.7,2.288,2.288,0,0,0-.336-.6.844.844,0,0,1,0-1.314,2.325,2.325,0,0,0,.336-.6,2.377,2.377,0,0,0,.084-.7.821.821,0,0,1,.754-1.031,2.31,2.31,0,0,0,.639-.293,2.421,2.421,0,0,0,.469-.512,1.3,1.3,0,0,1,.519-.494,1.279,1.279,0,0,1,.686.093,1.848,1.848,0,0,0,1.411,0,1.28,1.28,0,0,1,.686-.093,1.3,1.3,0,0,1,.519.494,1.766,1.766,0,0,0,1.108.806,1.3,1.3,0,0,1,.625.339,1.283,1.283,0,0,1,.129.693,2.375,2.375,0,0,0,.084.7,2.323,2.323,0,0,0,.336.6.844.844,0,0,1,0,1.314,2.286,2.286,0,0,0-.336.6,2.376,2.376,0,0,0-.084.7,1.959,1.959,0,0,1-.061.555c.183-.12.366-.237.549-.354l.007-.19a2.014,2.014,0,0,1,.059-.56,1.962,1.962,0,0,1,.271-.467,1.293,1.293,0,0,0,0-1.878,1.961,1.961,0,0,1-.271-.467,2.014,2.014,0,0,1-.059-.56,1.271,1.271,0,0,0-1.086-1.485,2.061,2.061,0,0,1-.51-.228,2,2,0,0,1-.366-.409,1.675,1.675,0,0,0-.761-.668,1.618,1.618,0,0,0-.982.09,1.409,1.409,0,0,1-1.126,0,1.618,1.618,0,0,0-.982-.09,1.675,1.675,0,0,0-.761.668,2,2,0,0,1-.366.409,2.058,2.058,0,0,1-.51.228,1.667,1.667,0,0,0-.862.512,1.635,1.635,0,0,0-.221.973,2,2,0,0,1-.061.56,1.964,1.964,0,0,1-.271.467,1.293,1.293,0,0,0,0,1.878,1.964,1.964,0,0,1,.271.467,2,2,0,0,1,.061.56,1.635,1.635,0,0,0,.221.973,1.667,1.667,0,0,0,.862.512,2.062,2.062,0,0,1,.51.226,2.085,2.085,0,0,1,.366.411,1.674,1.674,0,0,0,.761.668,1.618,1.618,0,0,0,.982-.09,1.41,1.41,0,0,1,1.126,0l.156.047q.254-.207.508-.406A2.176,2.176,0,0,1,324.746,240.2Z" transform="translate(-310.574 -221.848)" fill="#fefefe"/>
        <path id="パス_4" data-name="パス 4" d="M325.175,230.214a7.037,7.037,0,0,0-1.677,13.872c.144-.138.289-.275.433-.411a6.543,6.543,0,1,1,7.787-6.423,6.44,6.44,0,0,1-.056.84c.176-.095.35-.192.526-.284.013-.183.025-.368.025-.555A7.046,7.046,0,0,0,325.175,230.214Z" transform="translate(-311.708 -223.093)" fill="#fefefe"/>
        <path id="パス_5" data-name="パス 5" d="M322.11,235.434q.532-.4,1.077-.776a2.352,2.352,0,0,0-.625.289A2.264,2.264,0,0,0,322.11,235.434Z" transform="translate(-306.715 -217.508)" fill="#fefefe"/>
        <path id="パス_6" data-name="パス 6" d="M321.618,246.4l-1.185,6.268,4.665-2.553q.5-.559,1.016-1.1a8.24,8.24,0,1,1,10.881-7.861c.415-.2.833-.393,1.255-.576l3.972-3.744-6.329-.81,1.185-6.268-5.6,3.063-2.726-5.767-2.729,5.767-5.6-3.063,1.185,6.268-6.329.81,4.643,4.376-4.643,4.374Zm3.9,2.925-4.4,2.408.932-4.936A8.789,8.789,0,0,0,325.513,249.329ZM341.123,237.2l-3.652,3.44a8.649,8.649,0,0,0-1.329-4.078Zm-4.724-6.5-.932,4.936A8.789,8.789,0,0,0,332,233.105Zm-7.642-2.483,2.144,4.534a8.764,8.764,0,0,0-4.288,0Zm-7.645,2.483,4.4,2.408a8.79,8.79,0,0,0-3.469,2.528Zm-4.724,6.5,4.981-.639a8.648,8.648,0,0,0-1.329,4.078Zm3.652,4.6a8.648,8.648,0,0,0,1.329,4.078l-4.981-.639Z" transform="translate(-315.289 -227.059)" fill="#fefefe"/>
        <path id="パス_7" data-name="パス 7" d="M321.961,232.771a1.266,1.266,0,1,0,1.264,1.266A1.267,1.267,0,0,0,321.961,232.771Zm0,2.038a.772.772,0,1,1,.77-.772A.773.773,0,0,1,321.961,234.809Z" transform="translate(-308.494 -219.879)" fill="#fefefe"/>
      </g>
    </g>
  </g>
  <g id="グループ_4" data-name="グループ 4" transform="translate(0 74.226)">
    <path id="パス_9" data-name="パス 9" d="M295.465,270.79v-5.557h.639q1.083,5.43,5.135,5.43a3.738,3.738,0,0,0,2.823-1.038,3.283,3.283,0,0,0,1-2.327,2.952,2.952,0,0,0-.88-2.178,10.878,10.878,0,0,0-3.209-1.862,23.542,23.542,0,0,1-3.135-1.56,4.766,4.766,0,0,1-1.652-1.74,4.637,4.637,0,0,1-.591-2.282,4.087,4.087,0,0,1,1.28-3.076,4.492,4.492,0,0,1,3.243-1.23,5.894,5.894,0,0,1,2.065.357,5.281,5.281,0,0,1,1.988,1.478,2.722,2.722,0,0,0,.661-1.517h.562v4.523h-.562a6.07,6.07,0,0,0-1.713-3.108,4.074,4.074,0,0,0-2.848-1.135,2.826,2.826,0,0,0-2.262.835,2.74,2.74,0,0,0-.72,1.828,2.639,2.639,0,0,0,.905,2.027,12.331,12.331,0,0,0,3.223,1.887,33.489,33.489,0,0,1,3.243,1.6,4.548,4.548,0,0,1,1.625,1.677,4.884,4.884,0,0,1,.612,2.471,4.72,4.72,0,0,1-1.478,3.607,5.529,5.529,0,0,1-3.95,1.39,6.03,6.03,0,0,1-4.742-2.18,4.331,4.331,0,0,0-.623,1.682Z" transform="translate(-295.465 -253.37)" fill="#fefefe"/>
    <path id="パス_10" data-name="パス 10" d="M311.706,256.543v6.843q0,1.71.052,2.142a.859.859,0,0,0,.377.65,2.238,2.238,0,0,0,1.165.217v.585a7.967,7.967,0,0,0-2.828.409h-.153a5.282,5.282,0,0,1-.433-2.422,5.668,5.668,0,0,1-1.779,1.824,4.166,4.166,0,0,1-2.21.612,3.546,3.546,0,0,1-1.848-.478,2.563,2.563,0,0,1-1.1-1.167,5.443,5.443,0,0,1-.3-2.076v-3.555a21.777,21.777,0,0,0-.063-2.212.794.794,0,0,0-.4-.594,2.811,2.811,0,0,0-1.244-.19v-.587h3.544v7.238a6.851,6.851,0,0,0,.126,1.555,1.53,1.53,0,0,0,.65.849,2.08,2.08,0,0,0,1.212.361,3.156,3.156,0,0,0,1.873-.643,3.557,3.557,0,0,0,1.217-1.363,5.158,5.158,0,0,0,.325-2.058v-2.356q0-1.71-.038-2.079a1.008,1.008,0,0,0-.325-.643,1.811,1.811,0,0,0-1.192-.273h-.266v-.587Z" transform="translate(-288.585 -249.381)" fill="#fefefe"/>
    <path id="パス_11" data-name="パス 11" d="M309.9,256.357h.345a6.959,6.959,0,0,1,.33,2.153,6.676,6.676,0,0,1,1.925-1.618,4.422,4.422,0,0,1,2.1-.535,3.67,3.67,0,0,1,2.045.521,2.35,2.35,0,0,1,1.025,1.282,8.057,8.057,0,0,1,.23,2.21v3.264a20.858,20.858,0,0,0,.063,2.205.8.8,0,0,0,.4.591,2.68,2.68,0,0,0,1.244.2v.585h-5.34v-.585h.241a1.841,1.841,0,0,0,1.2-.269.983.983,0,0,0,.318-.625q.037-.355.038-2.1v-3.365a8.858,8.858,0,0,0-.122-1.765,1.665,1.665,0,0,0-.65-.937,2.138,2.138,0,0,0-1.343-.409,3.194,3.194,0,0,0-1.779.555,5.9,5.9,0,0,0-1.6,1.663v4.257a19.44,19.44,0,0,0,.07,2.205.82.82,0,0,0,.409.591,2.716,2.716,0,0,0,1.255.2v.585h-5.275v-.585a2.955,2.955,0,0,0,1.223-.178.793.793,0,0,0,.427-.542,16.666,16.666,0,0,0,.084-2.275v-3.11a19.455,19.455,0,0,0-.07-2.212.823.823,0,0,0-.409-.585,2.718,2.718,0,0,0-1.255-.2v-.587A16.326,16.326,0,0,0,309.9,256.357Z" transform="translate(-280.926 -249.615)" fill="#fefefe"/>
    <path id="パス_12" data-name="パス 12" d="M325.663,263.59h7.455v.612a3.823,3.823,0,0,0-1.675.248,1.227,1.227,0,0,0-.58.828,16.459,16.459,0,0,0-.14,2.81v1.835a3.352,3.352,0,0,0-.548-.05,7.737,7.737,0,0,0-2.573.6,11.458,11.458,0,0,1-4.015.817,8.381,8.381,0,0,1-8.628-8.629,9.811,9.811,0,0,1,2.345-6.5,7.889,7.889,0,0,1,6.371-2.79,7.344,7.344,0,0,1,5.735,2.548,6.007,6.007,0,0,0,.537-1.925h.612v5.773h-.612a6.908,6.908,0,0,0-2.02-4.218,5.638,5.638,0,0,0-4.008-1.555,5.821,5.821,0,0,0-4.245,1.81q-1.808,1.811-1.808,6.423t1.745,6.518a5.622,5.622,0,0,0,4.333,1.918,5.312,5.312,0,0,0,2.408-.542,3.16,3.16,0,0,0,1.478-1.318,4.314,4.314,0,0,0,.395-1.964,5.957,5.957,0,0,0-.185-1.855,1.046,1.046,0,0,0-.567-.623,4.147,4.147,0,0,0-1.4-.16h-.408Z" transform="translate(-270.962 -253.37)" fill="#fefefe"/>
    <path id="パス_13" data-name="パス 13" d="M327.055,259.02a4.334,4.334,0,0,1,1.408-1.9,3.107,3.107,0,0,1,1.9-.765,1.72,1.72,0,0,1,1.325.521,1.583,1.583,0,0,1,.485,1.07.908.908,0,0,1-.248.639.8.8,0,0,1-.607.266q-.636,0-.968-.941c-.151-.427-.381-.639-.688-.639a2.1,2.1,0,0,0-1.311.747,3.437,3.437,0,0,0-.982,1.548,8.815,8.815,0,0,0-.217,2.2v1.862c0,1.113.016,1.815.045,2.1a.888.888,0,0,0,.363.664,2.028,2.028,0,0,0,1.133.23h.357v.585h-5.543v-.585h.269a2.1,2.1,0,0,0,1.09-.21.848.848,0,0,0,.388-.594,20.424,20.424,0,0,0,.063-2.192v-2.945c0-1.119-.016-1.824-.045-2.108a.9.9,0,0,0-.363-.664,2,2,0,0,0-1.133-.235h-.269v-.573a18.138,18.138,0,0,0,3.135-.752A8.461,8.461,0,0,1,327.055,259.02Z" transform="translate(-260.211 -249.615)" fill="#fefefe"/>
    <path id="パス_14" data-name="パス 14" d="M327.582,261.977a5.446,5.446,0,0,1,1.607-4.008,5.654,5.654,0,0,1,7.913.007,5.462,5.462,0,0,1,1.607,4,5.374,5.374,0,0,1-1.632,4.148,5.594,5.594,0,0,1-3.938,1.51,5.516,5.516,0,0,1-3.932-1.537A5.4,5.4,0,0,1,327.582,261.977Zm2.117.063a6.305,6.305,0,0,0,.9,3.893,3.462,3.462,0,0,0,5.09,0,6.415,6.415,0,0,0,.887-3.893,6.684,6.684,0,0,0-.88-3.925,3.382,3.382,0,0,0-5.117-.007A6.642,6.642,0,0,0,329.7,262.04Z" transform="translate(-255.094 -249.615)" fill="#fefefe"/>
    <path id="パス_15" data-name="パス 15" d="M344.825,267.388h-.573l-3.11-8.283-3.173,8.283h-.56l-3.187-8.283a6.773,6.773,0,0,0-.815-1.7,1.5,1.5,0,0,0-1.07-.28v-.587H337.1v.587a2.721,2.721,0,0,0-1.095.147.514.514,0,0,0-.293.5,6.737,6.737,0,0,0,.5,1.49l2.115,5.6,3.239-8.322h.5l3.135,8.322,2.293-5.925a5.379,5.379,0,0,0,.37-1.135q0-.623-1.286-.675v-.587h3.39v.587a1.866,1.866,0,0,0-.964.235,2.03,2.03,0,0,0-.643,1l-.28.74Z" transform="translate(-249.117 -249.381)" fill="#fefefe"/>
    <path id="パス_16" data-name="パス 16" d="M344.633,259.28v7.277c0,1.113.018,1.815.052,2.1a.906.906,0,0,0,.368.664,2.036,2.036,0,0,0,1.135.23h.266v.585h-5.62v-.585h.433a1.821,1.821,0,0,0,1.18-.262,1.017,1.017,0,0,0,.318-.625q.044-.362.043-2.108V263.4a8.152,8.152,0,0,0-.172-2.243.827.827,0,0,0-.458-.51,3.374,3.374,0,0,0-1-.1h-.345v-.587a15.75,15.75,0,0,0,3.519-.675Zm-2.46-3.909a1.3,1.3,0,0,1,.388-.943,1.264,1.264,0,0,1,.937-.395,1.247,1.247,0,0,1,.932.395,1.305,1.305,0,0,1,.381.943,1.324,1.324,0,0,1-.381.955,1.247,1.247,0,0,1-.932.395,1.264,1.264,0,0,1-.937-.395A1.32,1.32,0,0,1,342.172,255.37Z" transform="translate(-238.436 -252.538)" fill="#fefefe"/>
    <path id="パス_17" data-name="パス 17" d="M346.733,256.357h.343a6.884,6.884,0,0,1,.332,2.153,6.646,6.646,0,0,1,1.925-1.618,4.422,4.422,0,0,1,2.1-.535,3.676,3.676,0,0,1,2.045.521,2.36,2.36,0,0,1,1.025,1.282,8.056,8.056,0,0,1,.23,2.21v3.264a20.891,20.891,0,0,0,.063,2.205.8.8,0,0,0,.4.591,2.68,2.68,0,0,0,1.244.2v.585h-5.34v-.585h.242a1.841,1.841,0,0,0,1.2-.269.994.994,0,0,0,.318-.625q.037-.355.038-2.1v-3.365a8.859,8.859,0,0,0-.122-1.765,1.665,1.665,0,0,0-.65-.937,2.143,2.143,0,0,0-1.343-.409,3.194,3.194,0,0,0-1.779.555,5.9,5.9,0,0,0-1.6,1.663v4.257a19.459,19.459,0,0,0,.07,2.205.82.82,0,0,0,.409.591,2.717,2.717,0,0,0,1.255.2v.585h-5.275v-.585a2.955,2.955,0,0,0,1.223-.178.793.793,0,0,0,.427-.542,16.845,16.845,0,0,0,.081-2.275v-3.11a18.876,18.876,0,0,0-.07-2.212.814.814,0,0,0-.406-.585,2.718,2.718,0,0,0-1.255-.2v-.587A16.328,16.328,0,0,0,346.733,256.357Z" transform="translate(-234.624 -249.615)" fill="#fefefe"/>
    <path id="パス_18" data-name="パス 18" d="M358.1,257.7a3.012,3.012,0,0,1,2.192-1.223,1.3,1.3,0,0,1,.95.33,1,1,0,0,1,.339.727q0,.843-.765.842a.866.866,0,0,1-.727-.524c-.187-.323-.381-.483-.587-.483a1.577,1.577,0,0,0-1.07.661,4.076,4.076,0,0,1,.664,2.219,3.836,3.836,0,0,1-1.1,2.7,5.116,5.116,0,0,1-3.695,1.275c-1.8.059-2.7.424-2.7,1.095,0,.314.2.535.612.664a11.621,11.621,0,0,0,2.523.3,17.334,17.334,0,0,1,3.237.39,3.215,3.215,0,0,1,1.81,1.151,3.417,3.417,0,0,1-.7,4.78,6.52,6.52,0,0,1-3.963,1.031,6.948,6.948,0,0,1-3.8-.916,2.7,2.7,0,0,1-1.426-2.32,1.938,1.938,0,0,1,.409-1.275,1.415,1.415,0,0,1,1.158-.5,1.06,1.06,0,0,1,.37.063,2.7,2.7,0,0,0-.79,1.835,2.185,2.185,0,0,0,1.052,1.855,5.511,5.511,0,0,0,3.142.734,4.889,4.889,0,0,0,2.9-.747,2.254,2.254,0,0,0,1.038-1.9,1.887,1.887,0,0,0-.93-1.8,8.3,8.3,0,0,0-3.313-.612,7.839,7.839,0,0,1-3.555-.675,1.646,1.646,0,0,1-.815-1.415q0-1.669,2.332-2.1a5.455,5.455,0,0,1-1.824-1.63,3.628,3.628,0,0,1-.612-2.052,3.489,3.489,0,0,1,1.257-2.708,4.321,4.321,0,0,1,2.975-1.115A4.511,4.511,0,0,1,358.1,257.7Zm-5.735,2.778a3.572,3.572,0,0,0,.677,2.408,2.261,2.261,0,0,0,3.383,0,3.89,3.89,0,0,0,.693-2.632,3.569,3.569,0,0,0-.738-2.6,2.343,2.343,0,0,0-1.67-.716,1.972,1.972,0,0,0-1.758.88A4.83,4.83,0,0,0,352.361,260.474Z" transform="translate(-227.053 -249.615)" fill="#fefefe"/>
  </g>
  <path id="パス_19" data-name="パス 19" d="M322.174,235.237a5.278,5.278,0,0,1-.278-.655c-.072-.208-.158-.46-.23-.747s-.144-.609-.2-.959a10.983,10.983,0,0,1-.124-1.126,7.406,7.406,0,0,1,.009-1.244,10.011,10.011,0,0,1,.237-1.314c.1-.447.2-.9.28-1.354.16-.91.307-1.819.481-2.67s.33-1.643.472-2.325c.289-1.359.51-2.264.51-2.264a.128.128,0,0,1,.156-.093.125.125,0,0,1,.1.113s.077.928.149,2.316c.034.7.074,1.5.1,2.37s.041,1.79.054,2.713c.007.46.034.923.065,1.381a10.2,10.2,0,0,1,.027,1.334,7.53,7.53,0,0,1-.187,1.23,10.552,10.552,0,0,1-.3,1.092,9.243,9.243,0,0,1-.348.916c-.115.273-.239.508-.343.7a5.262,5.262,0,0,1-.377.6.15.15,0,0,1-.21.029.141.141,0,0,1-.041-.05" transform="translate(-262.964 -220.483)" fill="#fefefe"/>
  <path id="パス_20" data-name="パス 20" d="M320.637,230.984a2.195,2.195,0,0,1-.309-.217,3.329,3.329,0,0,1-.293-.269,3.233,3.233,0,0,1-.316-.366,3.2,3.2,0,0,1-.526-1c-.106-.39-.081-.849-.156-1.277s-.138-.86-.183-1.268-.088-.79-.122-1.119c-.063-.657-.083-1.1-.083-1.1a.093.093,0,0,1,.088-.1.091.091,0,0,1,.083.045s.228.384.537.966c.153.291.334.632.515,1s.366.765.548,1.16.447.767.575,1.151a3.208,3.208,0,0,1,.111,1.122,3.3,3.3,0,0,1-.061.478,2.877,2.877,0,0,1-.1.386,2.278,2.278,0,0,1-.135.352.127.127,0,0,1-.172.052h0" transform="translate(-266.324 -215.721)" fill="#fefefe"/>
  <path id="パス_21" data-name="パス 21" d="M322.3,234.983a5.335,5.335,0,0,1-.634-.325c-.187-.113-.415-.248-.654-.422s-.5-.375-.77-.607-.544-.494-.819-.783a7.672,7.672,0,0,1-.794-.959,10.383,10.383,0,0,1-.661-1.158c-.208-.409-.424-.819-.655-1.217-.463-.8-.934-1.593-1.347-2.356s-.806-1.472-1.135-2.081c-.652-1.228-1.063-2.065-1.063-2.065a.128.128,0,0,1,.059-.172.131.131,0,0,1,.147.025s.657.661,1.6,1.679c.472.51,1.022,1.1,1.6,1.751s1.18,1.345,1.785,2.043c.3.35.618.686.937,1.016a10.573,10.573,0,0,1,.88,1,7.789,7.789,0,0,1,.648,1.063c.183.354.341.7.472,1.029s.237.643.323.925.142.544.187.758a5.424,5.424,0,0,1,.1.7.149.149,0,0,1-.142.158.144.144,0,0,1-.063-.011" transform="translate(-272.479 -217.539)" fill="#fefefe"/>
  <path id="パス_22" data-name="パス 22" d="M319.251,231.978a2.269,2.269,0,0,1-.377.032,3.149,3.149,0,0,1-.4-.016,3.671,3.671,0,0,1-.478-.077,3.207,3.207,0,0,1-1.043-.427c-.332-.232-.607-.6-.941-.878s-.657-.571-.952-.858-.578-.546-.815-.776c-.469-.463-.772-.79-.772-.79a.1.1,0,0,1,0-.131.093.093,0,0,1,.095-.02s.42.147,1.031.395c.3.124.661.271,1.036.436s.772.352,1.167.537.835.3,1.18.51a3.566,3.566,0,0,1,1.068,1.2,3.825,3.825,0,0,1,.172.357,2.23,2.23,0,0,1,.12.359.126.126,0,0,1-.095.151h0" transform="translate(-272.856 -210.994)" fill="#fefefe"/>
  <path id="パス_23" data-name="パス 23" d="M323.085,233.99a5.447,5.447,0,0,1-.693.158c-.217.034-.478.077-.774.1s-.625.036-.98.029a10.616,10.616,0,0,1-1.129-.074,7.6,7.6,0,0,1-1.226-.223,9.941,9.941,0,0,1-1.253-.463c-.422-.178-.851-.354-1.284-.51-.867-.316-1.738-.618-2.546-.937s-1.562-.609-2.207-.867c-1.289-.521-2.14-.9-2.14-.9a.128.128,0,0,1-.068-.167.132.132,0,0,1,.129-.077s.928.084,2.307.255c.691.088,1.5.187,2.352.314s1.769.271,2.681.418c.456.072.916.126,1.37.176a10.487,10.487,0,0,1,1.32.2,7.6,7.6,0,0,1,1.178.4,10.341,10.341,0,0,1,1.025.485,9.793,9.793,0,0,1,.842.5,7.456,7.456,0,0,1,.63.46,5.691,5.691,0,0,1,.53.474.15.15,0,0,1-.009.212.145.145,0,0,1-.056.034" transform="translate(-278.732 -208.447)" fill="#fefefe"/>
  <path id="パス_24" data-name="パス 24" d="M318.827,234.415a2.28,2.28,0,0,1-.269.266,3.481,3.481,0,0,1-.314.244,3.252,3.252,0,0,1-.415.246,3.169,3.169,0,0,1-1.072.345c-.4.034-.851-.068-1.286-.07s-.871-.014-1.282-.041-.792-.05-1.122-.072c-.657-.054-1.1-.111-1.1-.111a.094.094,0,0,1-.081-.1.1.1,0,0,1,.061-.074s.415-.158,1.043-.361c.316-.1.682-.219,1.074-.332s.817-.228,1.237-.341.835-.3,1.235-.363a3.153,3.153,0,0,1,1.124.084,2.981,2.981,0,0,1,.46.144,3.363,3.363,0,0,1,.363.163,2.133,2.133,0,0,1,.32.2.124.124,0,0,1,.023.178v0" transform="translate(-274.823 -203.961)" fill="#fefefe"/>
  <path id="パス_25" data-name="パス 25" d="M323.051,236.245a5.562,5.562,0,0,1-.429.566c-.144.167-.32.368-.533.573a9.109,9.109,0,0,1-.731.652,11.116,11.116,0,0,1-.912.67,7.812,7.812,0,0,1-1.083.614,9.784,9.784,0,0,1-1.255.451c-.438.135-.88.275-1.314.436-.867.316-1.729.643-2.553.919s-1.589.537-2.248.754c-1.323.431-2.216.691-2.216.691a.129.129,0,0,1-.108-.23s.765-.53,1.932-1.286c.585-.375,1.264-.815,2-1.271s1.53-.93,2.323-1.4c.395-.237.783-.49,1.162-.745a10,10,0,0,1,1.142-.693,7.554,7.554,0,0,1,1.16-.454,11.265,11.265,0,0,1,1.095-.287c.348-.075.673-.122.968-.156a7.517,7.517,0,0,1,.779-.052,5.259,5.259,0,0,1,.711.023.153.153,0,0,1,.131.167.181.181,0,0,1-.023.061" transform="translate(-277.679 -200.988)" fill="#fefefe"/>
  <path id="パス_26" data-name="パス 26" d="M319.564,237.94a2.187,2.187,0,0,1-.032.375,3.771,3.771,0,0,1-.086.388,3.384,3.384,0,0,1-.16.458,3.142,3.142,0,0,1-.6.952c-.287.287-.693.5-1.027.774s-.677.548-1.009.792-.641.472-.907.664c-.537.384-.912.625-.912.625a.092.092,0,0,1-.129-.029.085.085,0,0,1,0-.095s.217-.388.567-.948c.176-.28.381-.6.609-.946s.479-.7.729-1.054.442-.77.711-1.072a3.481,3.481,0,0,1,1.361-.844,2.9,2.9,0,0,1,.381-.108,2.414,2.414,0,0,1,.375-.056.126.126,0,0,1,.131.122h0" transform="translate(-271.303 -198.695)" fill="#fefefe"/>
  <path id="パス_27" data-name="パス 27" d="M326.954,232.3a2.24,2.24,0,0,1,.158-.341,3.777,3.777,0,0,1,.212-.336,3.389,3.389,0,0,1,.307-.375,3.172,3.172,0,0,1,.891-.691c.366-.172.822-.228,1.23-.375s.824-.284,1.219-.4.763-.226,1.079-.314c.636-.176,1.07-.275,1.07-.275a.1.1,0,0,1,.113.07.1.1,0,0,1-.032.092s-.336.289-.858.7c-.26.2-.564.438-.9.682s-.688.49-1.045.74-.679.573-1.034.765a3.178,3.178,0,0,1-1.086.3,3.29,3.29,0,0,1-.483.023,3.223,3.223,0,0,1-.395-.029,2.4,2.4,0,0,1-.372-.074.129.129,0,0,1-.081-.16l0,0" transform="translate(-255.893 -209.529)" fill="#fefefe"/>
  <path id="パス_28" data-name="パス 28" d="M325.654,234.634a5.448,5.448,0,0,1,.21-.682c.079-.205.174-.454.3-.718s.282-.56.465-.862a10.706,10.706,0,0,1,.63-.943,7.574,7.574,0,0,1,.806-.948,9.9,9.9,0,0,1,1.027-.853c.366-.275.731-.56,1.083-.858.706-.594,1.406-1.2,2.085-1.736s1.309-1.049,1.853-1.478c1.1-.858,1.848-1.406,1.848-1.406a.129.129,0,0,1,.178.027.132.132,0,0,1,0,.151s-.537.761-1.374,1.869c-.422.553-.912,1.2-1.449,1.88s-1.117,1.395-1.7,2.113c-.291.359-.571.729-.84,1.1a10.258,10.258,0,0,1-.835,1.04,7.683,7.683,0,0,1-.937.822,11.053,11.053,0,0,1-.93.645c-.3.187-.591.345-.855.478s-.51.232-.713.314a5.366,5.366,0,0,1-.677.221.15.15,0,0,1-.181-.113.147.147,0,0,1,0-.063" transform="translate(-257.521 -215.903)" fill="#fefefe"/>
  <path id="パス_29" data-name="パス 29" d="M323.936,231.114a2.4,2.4,0,0,1-.1-.366,3.257,3.257,0,0,1-.054-.395,3.391,3.391,0,0,1-.007-.483,3.15,3.15,0,0,1,.239-1.1c.172-.366.483-.7.7-1.079s.447-.747.677-1.088.438-.664.623-.934c.375-.544.645-.9.645-.9a.093.093,0,0,1,.131-.018.092.092,0,0,1,.034.088s-.072.44-.208,1.086c-.072.323-.151.7-.251,1.1s-.212.819-.325,1.239-.151.876-.3,1.253a3.175,3.175,0,0,1-.634.93,3.333,3.333,0,0,1-.357.327,2.886,2.886,0,0,1-.323.232,2.188,2.188,0,0,1-.332.181.126.126,0,0,1-.165-.07h0" transform="translate(-259.882 -215.141)" fill="#fefefe"/>
  <path id="パス_30" data-name="パス 30" d="M317.163,262.216a37.579,37.579,0,0,1,53.175-25.366,35.2,35.2,0,0,0-53.742,39.06A37.454,37.454,0,0,1,317.163,262.216Z" transform="translate(-270.774 -207.774)" fill="#fefefe"/>
</svg>
