<svg xmlns="http://www.w3.org/2000/svg" xmlns:xlink="http://www.w3.org/1999/xlink" width="60" height="43.82" viewBox="0 0 60 43.82">
  <defs>
    <clipPath id="clip-path">
      <path id="パス_8" data-name="パス 8" d="M318.938,238.208a16.828,16.828,0,0,1,7.688-5.555,5.382,5.382,0,1,0-7.688,5.555Z" transform="translate(-315.909 -227.985)" fill="#fefefe"/>
    </clipPath>
  </defs>
  <g id="_LOGO_HEADER_Desktop" data-name="[LOGO] HEADER Desktop" transform="translate(0 0)">
    <path id="パス_1" data-name="パス 1" d="M318.938,238.208a16.828,16.828,0,0,1,7.688-5.555,5.382,5.382,0,1,0-7.688,5.555Z" transform="translate(-295.329 -220.433)" fill="#fefefe"/>
    <g id="グループ_3" data-name="グループ 3" transform="translate(20.58 7.552)">
      <path id="パス_2" data-name="パス 2" d="M318.938,238.208a16.828,16.828,0,0,1,7.688-5.555,5.382,5.382,0,1,0-7.688,5.555Z" transform="translate(-315.909 -227.985)" fill="#fefefe"/>
      <g id="グループ_2" data-name="グループ 2" clip-path="url(#clip-path)">
        <g id="グループ_1" data-name="グループ 1" transform="translate(-0.624 -0.932)">
          <path id="パス_3" data-name="パス 3" d="M321.585,235.216a.824.824,0,0,0-.629,0,.363.363,0,0,1-.538-.179,1.079,1.079,0,0,0-.209-.228,1.063,1.063,0,0,0-.285-.132.365.365,0,0,1-.336-.459,1.062,1.062,0,0,0-.037-.313,1.019,1.019,0,0,0-.15-.266.377.377,0,0,1,0-.586,1.035,1.035,0,0,0,.15-.266,1.061,1.061,0,0,0,.037-.313.366.366,0,0,1,.336-.46,1.031,1.031,0,0,0,.285-.131,1.081,1.081,0,0,0,.209-.228.581.581,0,0,1,.232-.22.571.571,0,0,1,.306.041.824.824,0,0,0,.629,0,.571.571,0,0,1,.306-.041.581.581,0,0,1,.232.22.787.787,0,0,0,.494.359.582.582,0,0,1,.279.151.571.571,0,0,1,.057.309,1.059,1.059,0,0,0,.037.313,1.035,1.035,0,0,0,.15.266.377.377,0,0,1,0,.586,1.019,1.019,0,0,0-.15.266,1.059,1.059,0,0,0-.037.313.874.874,0,0,1-.027.248l.245-.158c0-.028,0-.056,0-.085a.9.9,0,0,1,.026-.25.876.876,0,0,1,.121-.208.577.577,0,0,0,0-.838.875.875,0,0,1-.121-.208.9.9,0,0,1-.026-.25.736.736,0,0,0-.1-.434.743.743,0,0,0-.385-.229.919.919,0,0,1-.228-.1.892.892,0,0,1-.163-.182.747.747,0,0,0-.339-.3.721.721,0,0,0-.438.04.629.629,0,0,1-.5,0,.721.721,0,0,0-.438-.04.747.747,0,0,0-.339.3.892.892,0,0,1-.163.182.917.917,0,0,1-.227.1.743.743,0,0,0-.385.229.728.728,0,0,0-.1.434.9.9,0,0,1-.027.25.876.876,0,0,1-.121.208.577.577,0,0,0,0,.838.876.876,0,0,1,.121.208.9.9,0,0,1,.027.25.729.729,0,0,0,.1.434.743.743,0,0,0,.385.228.92.92,0,0,1,.227.1.93.93,0,0,1,.163.183.747.747,0,0,0,.339.3.721.721,0,0,0,.438-.04.629.629,0,0,1,.5,0l.069.021q.113-.092.227-.181A.97.97,0,0,1,321.585,235.216Z" transform="translate(-315.264 -227.031)" fill="#fefefe"/>
          <path id="パス_4" data-name="パス 4" d="M321.277,230.214a3.139,3.139,0,0,0-.748,6.187l.193-.183a2.918,2.918,0,1,1,3.473-2.865,2.875,2.875,0,0,1-.025.374c.079-.042.156-.086.235-.127.006-.082.011-.164.011-.248A3.143,3.143,0,0,0,321.277,230.214Z" transform="translate(-315.27 -227.038)" fill="#fefefe"/>
          <path id="パス_5" data-name="パス 5" d="M322.11,235q.237-.177.48-.346a1.048,1.048,0,0,0-.279.129A1.011,1.011,0,0,0,322.11,235Z" transform="translate(-315.243 -227.008)" fill="#fefefe"/>
          <path id="パス_6" data-name="パス 6" d="M318.112,235.687l-.528,2.8,2.081-1.139q.222-.249.453-.489a3.675,3.675,0,1,1,4.853-3.506c.185-.089.371-.175.56-.257l1.772-1.67-2.823-.361.528-2.8-2.5,1.366-1.216-2.572-1.217,2.572-2.5-1.366.528,2.8-2.823.361,2.071,1.952-2.071,1.951Zm1.738,1.3-1.963,1.074.416-2.2A3.92,3.92,0,0,0,319.849,236.992Zm6.962-5.41-1.629,1.534a3.858,3.858,0,0,0-.593-1.819Zm-2.107-2.9-.416,2.2a3.921,3.921,0,0,0-1.547-1.128Zm-3.409-1.107.956,2.022a3.91,3.91,0,0,0-1.913,0Zm-3.41,1.107,1.963,1.074a3.92,3.92,0,0,0-1.547,1.128Zm-2.107,2.9L318,231.3a3.857,3.857,0,0,0-.593,1.819Zm1.629,2.05a3.858,3.858,0,0,0,.593,1.819l-2.222-.285Z" transform="translate(-315.289 -227.059)" fill="#fefefe"/>
          <path id="パス_7" data-name="パス 7" d="M321.26,232.771a.565.565,0,1,0,.564.565A.565.565,0,0,0,321.26,232.771Zm0,.909a.344.344,0,1,1,.343-.344A.345.345,0,0,1,321.26,233.68Z" transform="translate(-315.253 -227.021)" fill="#fefefe"/>
        </g>
      </g>
    </g>
    <g id="グループ_4" data-name="グループ 4" transform="translate(0 33.106)">
      <path id="パス_9" data-name="パス 9" d="M295.465,261.139v-2.478h.285q.483,2.422,2.29,2.422a1.667,1.667,0,0,0,1.259-.463,1.464,1.464,0,0,0,.446-1.038,1.317,1.317,0,0,0-.393-.971,4.854,4.854,0,0,0-1.431-.831,10.5,10.5,0,0,1-1.4-.7,2.126,2.126,0,0,1-.737-.776,2.068,2.068,0,0,1-.264-1.018,1.823,1.823,0,0,1,.571-1.372,2,2,0,0,1,1.447-.549,2.628,2.628,0,0,1,.921.159,2.356,2.356,0,0,1,.887.659,1.214,1.214,0,0,0,.295-.676h.251v2.017h-.251a2.708,2.708,0,0,0-.764-1.386,1.817,1.817,0,0,0-1.27-.506,1.26,1.26,0,0,0-1.009.372,1.222,1.222,0,0,0-.321.815,1.177,1.177,0,0,0,.4.9,5.5,5.5,0,0,0,1.437.842,14.943,14.943,0,0,1,1.447.713,2.029,2.029,0,0,1,.725.748,2.178,2.178,0,0,1,.273,1.1,2.105,2.105,0,0,1-.659,1.609,2.466,2.466,0,0,1-1.762.62,2.69,2.69,0,0,1-2.115-.972,1.931,1.931,0,0,0-.278.75Z" transform="translate(-295.465 -253.37)" fill="#fefefe"/>
      <path id="パス_10" data-name="パス 10" d="M305.741,256.543V259.6q0,.762.023.955a.383.383,0,0,0,.168.29,1,1,0,0,0,.519.1v.261a3.555,3.555,0,0,0-1.261.182h-.068a2.356,2.356,0,0,1-.193-1.08,2.527,2.527,0,0,1-.793.813,1.858,1.858,0,0,1-.986.273,1.581,1.581,0,0,1-.824-.213,1.143,1.143,0,0,1-.491-.52,2.428,2.428,0,0,1-.134-.926v-1.585a9.718,9.718,0,0,0-.028-.987.354.354,0,0,0-.179-.265,1.253,1.253,0,0,0-.555-.085v-.262h1.58v3.228a3.055,3.055,0,0,0,.056.694.682.682,0,0,0,.29.379.928.928,0,0,0,.541.161,1.408,1.408,0,0,0,.836-.287,1.588,1.588,0,0,0,.543-.608,2.3,2.3,0,0,0,.145-.918v-1.051q0-.762-.017-.927a.45.45,0,0,0-.145-.287.807.807,0,0,0-.531-.122h-.119v-.262Z" transform="translate(-295.428 -253.349)" fill="#fefefe"/>
      <path id="パス_11" data-name="パス 11" d="M308.309,256.357h.154a3.106,3.106,0,0,1,.147.96,2.978,2.978,0,0,1,.859-.722,1.972,1.972,0,0,1,.938-.239,1.637,1.637,0,0,1,.912.233,1.048,1.048,0,0,1,.457.572,3.593,3.593,0,0,1,.1.986V259.6a9.309,9.309,0,0,0,.028.984.357.357,0,0,0,.179.264,1.2,1.2,0,0,0,.555.089v.261h-2.382v-.261h.108a.821.821,0,0,0,.535-.12.438.438,0,0,0,.142-.279q.017-.159.017-.937v-1.5a3.95,3.95,0,0,0-.054-.787.743.743,0,0,0-.29-.418.954.954,0,0,0-.6-.182,1.424,1.424,0,0,0-.793.248,2.632,2.632,0,0,0-.714.742v1.9a8.678,8.678,0,0,0,.031.984.366.366,0,0,0,.182.264,1.212,1.212,0,0,0,.56.089v.261h-2.353v-.261a1.318,1.318,0,0,0,.546-.08.354.354,0,0,0,.19-.242,7.427,7.427,0,0,0,.037-1.015v-1.387a8.674,8.674,0,0,0-.031-.987.367.367,0,0,0-.182-.261,1.212,1.212,0,0,0-.56-.089v-.262A7.29,7.29,0,0,0,308.309,256.357Z" transform="translate(-295.388 -253.35)" fill="#fefefe"/>
      <path id="パス_12" data-name="パス 12" d="M319.733,257.928h3.325v.273a1.7,1.7,0,0,0-.747.111.547.547,0,0,0-.259.369,7.336,7.336,0,0,0-.062,1.253v.818a1.494,1.494,0,0,0-.245-.022A3.451,3.451,0,0,0,320.6,261a5.111,5.111,0,0,1-1.791.364,3.738,3.738,0,0,1-3.849-3.848,4.376,4.376,0,0,1,1.046-2.9,3.519,3.519,0,0,1,2.842-1.244,3.276,3.276,0,0,1,2.558,1.137,2.678,2.678,0,0,0,.24-.859h.273v2.575h-.273a3.081,3.081,0,0,0-.9-1.881,2.515,2.515,0,0,0-1.788-.694,2.6,2.6,0,0,0-1.894.807,4.01,4.01,0,0,0-.806,2.865,4.3,4.3,0,0,0,.778,2.907,2.507,2.507,0,0,0,1.933.856,2.369,2.369,0,0,0,1.074-.242,1.41,1.41,0,0,0,.659-.588,1.924,1.924,0,0,0,.176-.876,2.656,2.656,0,0,0-.083-.827.467.467,0,0,0-.253-.278,1.849,1.849,0,0,0-.625-.071h-.182Z" transform="translate(-295.335 -253.37)" fill="#fefefe"/>
      <path id="パス_13" data-name="パス 13" d="M325.091,257.545a1.932,1.932,0,0,1,.628-.847,1.386,1.386,0,0,1,.85-.341.767.767,0,0,1,.591.233.706.706,0,0,1,.216.477.405.405,0,0,1-.111.285.356.356,0,0,1-.271.119q-.284,0-.432-.42c-.067-.19-.17-.285-.307-.285a.938.938,0,0,0-.585.333,1.531,1.531,0,0,0-.438.691,3.93,3.93,0,0,0-.1.983v.83c0,.5.007.809.02.937a.4.4,0,0,0,.162.3.9.9,0,0,0,.505.1h.159v.261h-2.472v-.261h.12a.937.937,0,0,0,.486-.094.378.378,0,0,0,.173-.265,9.1,9.1,0,0,0,.028-.978v-1.314c0-.5-.007-.813-.02-.94a.4.4,0,0,0-.162-.3.892.892,0,0,0-.505-.1h-.12v-.256a8.09,8.09,0,0,0,1.4-.335A3.775,3.775,0,0,1,325.091,257.545Z" transform="translate(-295.278 -253.35)" fill="#fefefe"/>
      <path id="パス_14" data-name="パス 14" d="M327.582,258.864a2.429,2.429,0,0,1,.717-1.788,2.522,2.522,0,0,1,3.529,0,2.436,2.436,0,0,1,.717,1.785,2.4,2.4,0,0,1-.728,1.85,2.5,2.5,0,0,1-1.757.673,2.46,2.46,0,0,1-1.754-.685A2.408,2.408,0,0,1,327.582,258.864Zm.944.028a2.812,2.812,0,0,0,.4,1.736,1.544,1.544,0,0,0,2.27,0,2.861,2.861,0,0,0,.4-1.736,2.981,2.981,0,0,0-.393-1.751,1.508,1.508,0,0,0-2.282,0A2.963,2.963,0,0,0,328.526,258.892Z" transform="translate(-295.251 -253.35)" fill="#fefefe"/>
      <path id="パス_15" data-name="パス 15" d="M337.907,261.38h-.256l-1.387-3.694-1.415,3.694h-.25l-1.421-3.694a3.019,3.019,0,0,0-.363-.756.667.667,0,0,0-.477-.125v-.262h2.125v.262a1.214,1.214,0,0,0-.488.065.229.229,0,0,0-.131.225,3.005,3.005,0,0,0,.221.664l.943,2.5,1.445-3.712h.221l1.4,3.712,1.023-2.642a2.4,2.4,0,0,0,.165-.506q0-.278-.574-.3v-.262H340.2v.262a.833.833,0,0,0-.43.1.906.906,0,0,0-.287.446l-.125.33Z" transform="translate(-295.219 -253.349)" fill="#fefefe"/>
      <path id="パス_16" data-name="パス 16" d="M342.528,256.373v3.245c0,.5.008.809.023.937a.4.4,0,0,0,.164.3.908.908,0,0,0,.506.1h.119v.261h-2.507v-.261h.193a.812.812,0,0,0,.527-.117.453.453,0,0,0,.142-.279q.02-.162.019-.94v-1.409a3.637,3.637,0,0,0-.077-1,.369.369,0,0,0-.2-.228,1.506,1.506,0,0,0-.446-.045h-.154v-.262a7.021,7.021,0,0,0,1.569-.3Zm-1.1-1.743a.581.581,0,0,1,.173-.421.564.564,0,0,1,.418-.176.556.556,0,0,1,.416.176.582.582,0,0,1,.17.421.59.59,0,0,1-.17.426.556.556,0,0,1-.416.176.564.564,0,0,1-.418-.176A.589.589,0,0,1,341.431,254.629Z" transform="translate(-295.163 -253.366)" fill="#fefefe"/>
      <path id="パス_17" data-name="パス 17" d="M345.146,256.357h.153a3.07,3.07,0,0,1,.148.96,2.965,2.965,0,0,1,.859-.722,1.972,1.972,0,0,1,.938-.239,1.64,1.64,0,0,1,.912.233,1.053,1.053,0,0,1,.457.572,3.592,3.592,0,0,1,.1.986V259.6a9.309,9.309,0,0,0,.028.984.357.357,0,0,0,.179.264,1.2,1.2,0,0,0,.555.089v.261H347.1v-.261h.108a.821.821,0,0,0,.535-.12.443.443,0,0,0,.142-.279q.017-.159.017-.937v-1.5a3.953,3.953,0,0,0-.054-.787.743.743,0,0,0-.29-.418.956.956,0,0,0-.6-.182,1.424,1.424,0,0,0-.793.248,2.631,2.631,0,0,0-.714.742v1.9a8.681,8.681,0,0,0,.031.984.366.366,0,0,0,.182.264,1.212,1.212,0,0,0,.56.089v.261h-2.353v-.261a1.318,1.318,0,0,0,.546-.08.353.353,0,0,0,.19-.242,7.511,7.511,0,0,0,.036-1.015v-1.387a8.421,8.421,0,0,0-.031-.987.363.363,0,0,0-.181-.261,1.211,1.211,0,0,0-.56-.089v-.262A7.291,7.291,0,0,0,345.146,256.357Z" transform="translate(-295.143 -253.35)" fill="#fefefe"/>
      <path id="パス_18" data-name="パス 18" d="M353.55,256.954a1.344,1.344,0,0,1,.978-.546.579.579,0,0,1,.424.147.448.448,0,0,1,.151.324q0,.376-.341.375a.386.386,0,0,1-.324-.234c-.084-.144-.17-.215-.262-.215a.7.7,0,0,0-.477.295,1.818,1.818,0,0,1,.3.99,1.711,1.711,0,0,1-.489,1.2,2.282,2.282,0,0,1-1.648.569c-.8.026-1.2.189-1.2.488,0,.14.091.239.273.3a5.184,5.184,0,0,0,1.125.136,7.735,7.735,0,0,1,1.444.174,1.433,1.433,0,0,1,.807.513,1.524,1.524,0,0,1-.313,2.132,2.908,2.908,0,0,1-1.768.46,3.1,3.1,0,0,1-1.694-.409,1.205,1.205,0,0,1-.636-1.035.864.864,0,0,1,.182-.569.631.631,0,0,1,.516-.221.473.473,0,0,1,.165.028,1.2,1.2,0,0,0-.352.818.975.975,0,0,0,.469.827,2.458,2.458,0,0,0,1.4.327,2.18,2.18,0,0,0,1.293-.333,1,1,0,0,0,.463-.85.842.842,0,0,0-.415-.8,3.7,3.7,0,0,0-1.478-.273,3.5,3.5,0,0,1-1.585-.3.734.734,0,0,1-.363-.631q0-.744,1.04-.938a2.431,2.431,0,0,1-.813-.727,1.618,1.618,0,0,1-.273-.915,1.556,1.556,0,0,1,.561-1.208,1.927,1.927,0,0,1,1.327-.5A2.012,2.012,0,0,1,353.55,256.954Zm-2.558,1.239a1.594,1.594,0,0,0,.3,1.074,1.009,1.009,0,0,0,1.509,0,1.735,1.735,0,0,0,.309-1.174,1.592,1.592,0,0,0-.329-1.159,1.045,1.045,0,0,0-.745-.319.879.879,0,0,0-.784.393A2.154,2.154,0,0,0,350.992,258.193Z" transform="translate(-295.103 -253.35)" fill="#fefefe"/>
    </g>
    <path id="パス_19" data-name="パス 19" d="M321.7,227.064a2.362,2.362,0,0,1-.124-.292c-.032-.093-.07-.205-.1-.333s-.064-.272-.089-.428a4.9,4.9,0,0,1-.055-.5,3.3,3.3,0,0,1,0-.555,4.468,4.468,0,0,1,.106-.586c.046-.2.09-.4.125-.6.071-.406.137-.811.214-1.191s.147-.733.21-1.037c.129-.606.227-1.01.227-1.01a.057.057,0,0,1,.069-.041.056.056,0,0,1,.043.05s.034.414.066,1.033c.015.31.033.67.044,1.057s.018.8.024,1.21c0,.205.015.412.029.616a4.552,4.552,0,0,1,.012.595,3.363,3.363,0,0,1-.084.549,4.708,4.708,0,0,1-.134.487,4.123,4.123,0,0,1-.155.409c-.051.122-.107.226-.153.312a2.341,2.341,0,0,1-.168.27.067.067,0,0,1-.094.013.063.063,0,0,1-.018-.022" transform="translate(-295.293 -220.483)" fill="#fefefe"/>
    <path id="パス_20" data-name="パス 20" d="M319.535,227.266a.98.98,0,0,1-.138-.1,1.485,1.485,0,0,1-.131-.12,1.582,1.582,0,0,1-.375-.608c-.047-.174-.036-.379-.069-.57s-.061-.384-.082-.566-.039-.352-.054-.5c-.028-.293-.037-.491-.037-.491a.041.041,0,0,1,.039-.043.041.041,0,0,1,.037.02s.1.171.24.431c.068.13.149.282.23.446s.163.341.245.517.2.342.257.513a1.433,1.433,0,0,1,.049.5,1.466,1.466,0,0,1-.027.213,1.282,1.282,0,0,1-.044.172,1.018,1.018,0,0,1-.06.157.057.057,0,0,1-.077.023h0" transform="translate(-295.311 -220.458)" fill="#fefefe"/>
    <path id="パス_21" data-name="パス 21" d="M317.563,228.248a2.38,2.38,0,0,1-.283-.145c-.084-.05-.185-.111-.292-.188s-.225-.167-.343-.271-.243-.22-.365-.349a3.426,3.426,0,0,1-.354-.428,4.63,4.63,0,0,1-.295-.516c-.093-.182-.189-.365-.292-.543-.206-.357-.417-.711-.6-1.051s-.359-.656-.506-.928c-.291-.548-.474-.921-.474-.921a.057.057,0,0,1,.026-.077.058.058,0,0,1,.065.011s.293.295.715.749c.21.228.456.492.714.781s.526.6.8.911c.135.156.276.306.418.453a4.708,4.708,0,0,1,.393.448,3.467,3.467,0,0,1,.289.474c.082.158.152.312.21.459s.106.287.144.413.063.243.084.338a2.407,2.407,0,0,1,.044.314.067.067,0,0,1-.063.07.065.065,0,0,1-.028,0" transform="translate(-295.343 -220.468)" fill="#fefefe"/>
    <path id="パス_22" data-name="パス 22" d="M316.038,229.792a1.012,1.012,0,0,1-.168.014,1.4,1.4,0,0,1-.177-.007,1.636,1.636,0,0,1-.213-.034,1.431,1.431,0,0,1-.465-.19c-.148-.1-.271-.267-.42-.392s-.293-.255-.425-.383-.258-.244-.363-.346c-.209-.206-.344-.352-.344-.352a.042.042,0,0,1,0-.058.042.042,0,0,1,.042-.009s.187.065.46.176c.136.055.295.121.462.194s.344.157.52.24.372.134.526.228a1.59,1.59,0,0,1,.476.533,1.726,1.726,0,0,1,.077.159,1,1,0,0,1,.053.16.056.056,0,0,1-.042.067h0" transform="translate(-295.345 -220.433)" fill="#fefefe"/>
    <path id="パス_23" data-name="パス 23" d="M315.158,231.812a2.435,2.435,0,0,1-.309.07c-.1.015-.213.034-.345.043s-.279.016-.437.013a4.73,4.73,0,0,1-.5-.033,3.393,3.393,0,0,1-.547-.1,4.444,4.444,0,0,1-.559-.206c-.188-.08-.379-.158-.573-.228-.387-.141-.775-.276-1.136-.418s-.7-.272-.984-.387c-.575-.233-.954-.4-.954-.4a.057.057,0,0,1-.03-.074.059.059,0,0,1,.057-.034s.414.037,1.029.114c.308.039.667.084,1.049.14s.789.121,1.2.186c.2.032.409.056.611.079a4.68,4.68,0,0,1,.589.091,3.386,3.386,0,0,1,.525.178,4.6,4.6,0,0,1,.457.216c.14.074.266.151.376.223a3.329,3.329,0,0,1,.281.205,2.542,2.542,0,0,1,.236.211.067.067,0,0,1,0,.095.065.065,0,0,1-.025.015" transform="translate(-295.376 -220.419)" fill="#fefefe"/>
    <path id="パス_24" data-name="パス 24" d="M314.982,233.978a1.021,1.021,0,0,1-.12.119,1.545,1.545,0,0,1-.14.109,1.442,1.442,0,0,1-.185.11,1.414,1.414,0,0,1-.478.154c-.18.015-.379-.03-.574-.031s-.389-.006-.572-.018-.353-.022-.5-.032c-.293-.024-.49-.049-.49-.049a.042.042,0,0,1-.036-.046.044.044,0,0,1,.027-.033s.185-.07.465-.161c.141-.044.3-.1.479-.148s.364-.1.552-.152.372-.136.551-.162a1.407,1.407,0,0,1,.5.037,1.323,1.323,0,0,1,.205.064,1.492,1.492,0,0,1,.162.072.947.947,0,0,1,.143.088.055.055,0,0,1,.01.08h0" transform="translate(-295.356 -220.395)" fill="#fefefe"/>
    <path id="パス_25" data-name="パス 25" d="M315.608,236.1a2.483,2.483,0,0,1-.191.253c-.064.074-.143.164-.238.256a4.064,4.064,0,0,1-.326.291,4.969,4.969,0,0,1-.407.3,3.487,3.487,0,0,1-.483.274,4.36,4.36,0,0,1-.56.2c-.2.06-.393.123-.586.194-.387.141-.771.287-1.138.41s-.709.24-1,.336c-.59.192-.988.308-.988.308a.058.058,0,0,1-.048-.1s.341-.237.862-.574c.261-.167.564-.363.893-.567s.683-.415,1.036-.626c.176-.106.349-.219.518-.332a4.454,4.454,0,0,1,.509-.309,3.368,3.368,0,0,1,.517-.2,5.022,5.022,0,0,1,.488-.128c.155-.033.3-.054.432-.069a3.355,3.355,0,0,1,.347-.023,2.345,2.345,0,0,1,.317.01.068.068,0,0,1,.058.074.081.081,0,0,1-.01.027" transform="translate(-295.371 -220.38)" fill="#fefefe"/>
    <path id="パス_26" data-name="パス 26" d="M316.863,237.871a.979.979,0,0,1-.014.167,1.712,1.712,0,0,1-.038.173,1.514,1.514,0,0,1-.072.2,1.4,1.4,0,0,1-.268.425c-.128.128-.309.222-.458.345s-.3.245-.45.353-.286.21-.4.3c-.24.171-.407.279-.407.279a.041.041,0,0,1-.057-.013.038.038,0,0,1,0-.042s.1-.173.253-.423c.078-.125.17-.27.272-.422s.213-.311.325-.47.2-.343.317-.478a1.553,1.553,0,0,1,.607-.376,1.293,1.293,0,0,1,.17-.048,1.074,1.074,0,0,1,.167-.025.056.056,0,0,1,.058.054h0" transform="translate(-295.337 -220.367)" fill="#fefefe"/>
    <path id="パス_27" data-name="パス 27" d="M326.95,230.583a1,1,0,0,1,.07-.152,1.674,1.674,0,0,1,.095-.15,1.516,1.516,0,0,1,.137-.167,1.415,1.415,0,0,1,.4-.308c.163-.077.366-.1.549-.167s.367-.127.544-.178.34-.1.481-.14c.284-.079.477-.123.477-.123a.042.042,0,0,1,.05.031.044.044,0,0,1-.014.041s-.15.129-.382.31c-.116.091-.252.2-.4.3s-.307.218-.466.33-.3.256-.461.341a1.418,1.418,0,0,1-.484.136,1.464,1.464,0,0,1-.215.01,1.436,1.436,0,0,1-.176-.013,1.071,1.071,0,0,1-.166-.033.058.058,0,0,1-.036-.071h0" transform="translate(-295.255 -220.425)" fill="#fefefe"/>
    <path id="パス_28" data-name="パス 28" d="M325.652,228.813a2.418,2.418,0,0,1,.094-.3c.035-.092.077-.2.135-.32s.126-.25.207-.385a4.759,4.759,0,0,1,.281-.421,3.385,3.385,0,0,1,.359-.423,4.421,4.421,0,0,1,.458-.381c.163-.123.326-.25.483-.382.315-.265.627-.534.93-.774s.584-.468.826-.659c.489-.383.824-.627.824-.627a.057.057,0,0,1,.08.012.059.059,0,0,1,0,.067s-.239.339-.613.834c-.188.247-.407.536-.646.839s-.5.622-.758.942c-.13.16-.255.325-.375.49a4.565,4.565,0,0,1-.372.464,3.425,3.425,0,0,1-.418.366,4.933,4.933,0,0,1-.415.288c-.134.084-.264.154-.382.213s-.227.1-.318.14a2.4,2.4,0,0,1-.3.1.066.066,0,0,1-.081-.079" transform="translate(-295.264 -220.459)" fill="#fefefe"/>
    <path id="パス_29" data-name="パス 29" d="M323.845,227.579a1.071,1.071,0,0,1-.043-.163,1.446,1.446,0,0,1-.024-.176,1.514,1.514,0,0,1,0-.215,1.4,1.4,0,0,1,.107-.491c.077-.163.215-.313.313-.481s.2-.333.3-.485.2-.3.278-.417c.167-.243.288-.4.288-.4a.041.041,0,0,1,.058-.008.041.041,0,0,1,.015.039s-.032.2-.093.484c-.032.144-.067.311-.112.489s-.095.365-.145.553-.068.391-.134.559a1.417,1.417,0,0,1-.283.415,1.491,1.491,0,0,1-.159.146,1.282,1.282,0,0,1-.144.1.979.979,0,0,1-.148.081.056.056,0,0,1-.073-.031h0" transform="translate(-295.276 -220.455)" fill="#fefefe"/>
    <path id="パス_30" data-name="パス 30" d="M316.024,244.7a16.761,16.761,0,0,1,23.717-11.314,15.7,15.7,0,0,0-23.97,17.421A16.7,16.7,0,0,1,316.024,244.7Z" transform="translate(-295.334 -220.416)" fill="#fefefe"/>
  </g>
</svg>
