<svg xmlns="http://www.w3.org/2000/svg" xmlns:xlink="http://www.w3.org/1999/xlink" width="170.984" height="167.578" viewBox="0 0 170.984 167.578">
  <defs>
    <clipPath id="clip-path">
      <path id="パス_48" data-name="パス 48" d="M332.612,284.357a92.8,92.8,0,0,1,42.394-30.631,29.679,29.679,0,1,0-42.394,30.631Z" transform="translate(-315.909 -227.985)" fill="#fefefe"/>
    </clipPath>
  </defs>
  <g id="logo" transform="translate(-308.777 -220.483)">
    <path id="パス_41" data-name="パス 41" d="M332.612,284.357a92.8,92.8,0,0,1,42.394-30.631,29.679,29.679,0,1,0-42.394,30.631Z" transform="translate(32.461 34.142)" fill="#fefefe"/>
    <g id="グループ_12" data-name="グループ 12" transform="translate(348.37 262.127)">
      <path id="パス_42" data-name="パス 42" d="M332.612,284.357a92.8,92.8,0,0,1,42.394-30.631,29.679,29.679,0,1,0-42.394,30.631Z" transform="translate(-315.909 -227.985)" fill="#fefefe"/>
      <g id="グループ_11" data-name="グループ 11" clip-path="url(#clip-path)">
        <g id="グループ_10" data-name="グループ 10" transform="translate(-3.442 -5.141)">
          <path id="パス_43" data-name="パス 43" d="M333.073,253.329a4.544,4.544,0,0,0-3.47,0,2,2,0,0,1-2.964-.988,5.956,5.956,0,0,0-1.155-1.26,5.858,5.858,0,0,0-1.571-.727,2.013,2.013,0,0,1-1.854-2.531,5.844,5.844,0,0,0-.206-1.726,5.629,5.629,0,0,0-.827-1.465,2.077,2.077,0,0,1,0-3.231,5.721,5.721,0,0,0,.827-1.466,5.844,5.844,0,0,0,.206-1.726,2.02,2.02,0,0,1,1.854-2.537,5.678,5.678,0,0,0,1.571-.722,5.956,5.956,0,0,0,1.155-1.26,3.2,3.2,0,0,1,1.277-1.216,3.146,3.146,0,0,1,1.687.228,4.545,4.545,0,0,0,3.47,0,3.147,3.147,0,0,1,1.688-.228,3.2,3.2,0,0,1,1.277,1.216,4.344,4.344,0,0,0,2.726,1.982,3.21,3.21,0,0,1,1.538.833,3.158,3.158,0,0,1,.317,1.7,5.834,5.834,0,0,0,.205,1.726,5.713,5.713,0,0,0,.827,1.466,2.077,2.077,0,0,1,0,3.231,5.621,5.621,0,0,0-.827,1.465,5.835,5.835,0,0,0-.205,1.726,4.836,4.836,0,0,1-.15,1.366c.45-.294.9-.583,1.349-.872q.008-.233.017-.466a4.939,4.939,0,0,1,.144-1.377,4.824,4.824,0,0,1,.666-1.149,3.18,3.18,0,0,0,0-4.619,4.824,4.824,0,0,1-.666-1.149,4.939,4.939,0,0,1-.144-1.377,3.127,3.127,0,0,0-2.67-3.653,5.069,5.069,0,0,1-1.255-.561,4.93,4.93,0,0,1-.9-1,4.118,4.118,0,0,0-1.871-1.643,3.98,3.98,0,0,0-2.415.222,3.467,3.467,0,0,1-2.77,0,3.98,3.98,0,0,0-2.415-.222,4.117,4.117,0,0,0-1.871,1.643,4.93,4.93,0,0,1-.9,1,5.063,5.063,0,0,1-1.254.561,4.1,4.1,0,0,0-2.121,1.26,4.021,4.021,0,0,0-.544,2.393,4.931,4.931,0,0,1-.15,1.377,4.829,4.829,0,0,1-.666,1.149,3.181,3.181,0,0,0,0,4.619,4.829,4.829,0,0,1,.666,1.149,4.931,4.931,0,0,1,.15,1.377,4.02,4.02,0,0,0,.544,2.392,4.1,4.1,0,0,0,2.121,1.26,5.07,5.07,0,0,1,1.254.555,5.126,5.126,0,0,1,.9,1.01,4.117,4.117,0,0,0,1.871,1.643,3.979,3.979,0,0,0,2.415-.222,3.467,3.467,0,0,1,2.77,0l.383.117q.624-.508,1.249-1A5.348,5.348,0,0,1,333.073,253.329Z" transform="translate(-298.218 -208.193)" fill="#fefefe"/>
          <path id="パス_44" data-name="パス 44" d="M335.447,230.214a17.308,17.308,0,0,0-4.125,34.117c.355-.339.711-.677,1.066-1.01a16.092,16.092,0,1,1,19.152-15.8,15.858,15.858,0,0,1-.139,2.065c.433-.233.86-.472,1.293-.7.033-.45.061-.9.061-1.366A17.33,17.33,0,0,0,335.447,230.214Z" transform="translate(-302.323 -212.7)" fill="#fefefe"/>
          <path id="パス_45" data-name="パス 45" d="M322.11,236.567q1.307-.974,2.648-1.91a5.786,5.786,0,0,0-1.538.711A5.571,5.571,0,0,0,322.11,236.567Z" transform="translate(-284.245 -192.479)" fill="#fefefe"/>
          <path id="パス_46" data-name="パス 46" d="M330.854,274.638l-2.914,15.415,11.474-6.278q1.224-1.374,2.5-2.7a20.266,20.266,0,1,1,26.762-19.335c1.021-.489,2.048-.966,3.086-1.416l9.77-9.209-15.565-1.993,2.914-15.416-13.761,7.533-6.706-14.183L341.7,241.242l-13.761-7.533,2.914,15.416-15.565,1.993,11.419,10.764L315.289,272.64Zm9.581,7.194-10.825,5.923,2.293-12.14A21.618,21.618,0,0,0,340.436,281.832ZM378.828,252l-8.982,8.46a21.271,21.271,0,0,0-3.27-10.031Zm-11.618-15.993-2.293,12.14a21.618,21.618,0,0,0-8.532-6.217Zm-18.8-6.106,5.274,11.152a21.554,21.554,0,0,0-10.547,0Zm-18.8,6.106,10.825,5.923a21.618,21.618,0,0,0-8.532,6.217ZM317.992,252l12.251-1.571a21.272,21.272,0,0,0-3.27,10.031Zm8.982,11.3a21.272,21.272,0,0,0,3.27,10.031l-12.251-1.571Z" transform="translate(-315.289 -227.059)" fill="#fefefe"/>
          <path id="パス_47" data-name="パス 47" d="M323.809,232.771a3.114,3.114,0,1,0,3.109,3.114A3.117,3.117,0,0,0,323.809,232.771Zm0,5.013a1.9,1.9,0,1,1,1.893-1.9A1.9,1.9,0,0,1,323.809,237.784Z" transform="translate(-290.685 -201.063)" fill="#fefefe"/>
        </g>
      </g>
    </g>
    <path id="パス_49" data-name="パス 49" d="M323.418,256.77a13,13,0,0,1-.683-1.61c-.178-.511-.389-1.132-.566-1.837s-.355-1.5-.489-2.359a26.944,26.944,0,0,1-.305-2.77,18.213,18.213,0,0,1,.022-3.059,24.635,24.635,0,0,1,.583-3.231c.255-1.1.494-2.209.688-3.331.394-2.237.755-4.474,1.182-6.567.4-2.093.811-4.041,1.16-5.718.711-3.342,1.255-5.568,1.255-5.568a.314.314,0,0,1,.383-.228.307.307,0,0,1,.239.278s.189,2.282.366,5.7c.083,1.71.183,3.7.244,5.829.094,2.132.1,4.4.133,6.673.016,1.132.083,2.27.161,3.4a25.1,25.1,0,0,1,.066,3.281,18.511,18.511,0,0,1-.461,3.025,25.991,25.991,0,0,1-.738,2.687,22.767,22.767,0,0,1-.855,2.254c-.283.672-.588,1.249-.844,1.721a12.95,12.95,0,0,1-.927,1.488.37.37,0,0,1-.516.072.351.351,0,0,1-.1-.122" transform="translate(57.094 0)" fill="#fefefe"/>
    <path id="パス_50" data-name="パス 50" d="M323.539,240.781a5.409,5.409,0,0,1-.76-.533,8.161,8.161,0,0,1-.722-.661,7.969,7.969,0,0,1-.777-.9,7.865,7.865,0,0,1-1.293-2.454c-.261-.96-.2-2.087-.383-3.142-.161-1.06-.339-2.115-.45-3.12-.128-1-.216-1.943-.3-2.753-.155-1.615-.205-2.709-.205-2.709a.229.229,0,0,1,.217-.239.224.224,0,0,1,.205.111s.561.944,1.321,2.376c.378.716.822,1.554,1.266,2.459.466.9.9,1.882,1.349,2.853.433.977,1.1,1.887,1.415,2.831a7.892,7.892,0,0,1,.272,2.759,8.088,8.088,0,0,1-.15,1.177,7.054,7.054,0,0,1-.244.949,5.587,5.587,0,0,1-.333.866.312.312,0,0,1-.422.128h-.006" transform="translate(44.927 17.243)" fill="#fefefe"/>
    <path id="パス_51" data-name="パス 51" d="M334.773,252.727a13.108,13.108,0,0,1-1.56-.8c-.461-.277-1.021-.611-1.61-1.038s-1.238-.921-1.893-1.493-1.338-1.216-2.015-1.926a18.863,18.863,0,0,1-1.954-2.359,25.551,25.551,0,0,1-1.627-2.848c-.511-1-1.044-2.015-1.61-2.992-1.138-1.971-2.3-3.919-3.314-5.8-1.043-1.86-1.982-3.62-2.792-5.118-1.6-3.02-2.614-5.079-2.614-5.079a.316.316,0,0,1,.144-.422.322.322,0,0,1,.361.061s1.615,1.627,3.942,4.13c1.16,1.255,2.514,2.715,3.936,4.308,1.443,1.576,2.9,3.308,4.391,5.024.744.86,1.521,1.688,2.3,2.5a26,26,0,0,1,2.165,2.47,19.154,19.154,0,0,1,1.593,2.615c.45.872.838,1.721,1.16,2.531s.583,1.582.794,2.276.35,1.338.461,1.865a13.335,13.335,0,0,1,.244,1.732.368.368,0,0,1-.35.389.352.352,0,0,1-.155-.028" transform="translate(22.64 10.66)" fill="#fefefe"/>
    <path id="パス_52" data-name="パス 52" d="M327.716,237.737a5.567,5.567,0,0,1-.927.078,7.716,7.716,0,0,1-.977-.039,9.038,9.038,0,0,1-1.177-.189,7.886,7.886,0,0,1-2.565-1.049c-.816-.572-1.493-1.471-2.315-2.159-.8-.711-1.615-1.4-2.342-2.109-.744-.683-1.421-1.343-2-1.91-1.154-1.138-1.9-1.943-1.9-1.943a.233.233,0,0,1,.011-.322.229.229,0,0,1,.233-.05s1.032.361,2.537.971c.749.305,1.627.666,2.548,1.071.938.394,1.9.866,2.87,1.321.96.472,2.054.738,2.9,1.255a8.771,8.771,0,0,1,2.626,2.942,9.335,9.335,0,0,1,.422.877,5.47,5.47,0,0,1,.294.883.311.311,0,0,1-.233.372h-.005" transform="translate(21.276 34.355)" fill="#fefefe"/>
    <path id="パス_53" data-name="パス 53" d="M343.968,239.729a13.388,13.388,0,0,1-1.7.389c-.533.083-1.177.189-1.9.239s-1.538.089-2.409.072a26.13,26.13,0,0,1-2.776-.183,18.684,18.684,0,0,1-3.014-.55,24.443,24.443,0,0,1-3.081-1.138c-1.038-.439-2.093-.872-3.159-1.255-2.132-.777-4.274-1.521-6.262-2.3-1.993-.755-3.841-1.5-5.429-2.132-3.17-1.282-5.263-2.209-5.263-2.209a.314.314,0,0,1-.166-.411.323.323,0,0,1,.316-.189s2.281.205,5.673.627c1.7.217,3.681.461,5.785.772,2.12.278,4.352.666,6.595,1.027,1.121.178,2.254.311,3.37.433a25.789,25.789,0,0,1,3.247.5,18.685,18.685,0,0,1,2.9.982,25.435,25.435,0,0,1,2.52,1.193,24.093,24.093,0,0,1,2.071,1.232,18.362,18.362,0,0,1,1.549,1.133,14,14,0,0,1,1.3,1.166.369.369,0,0,1-.022.522.356.356,0,0,1-.139.083" transform="translate(0 43.576)" fill="#fefefe"/>
    <path id="パス_54" data-name="パス 54" d="M328.958,235.565a5.626,5.626,0,0,1-.661.655,8.612,8.612,0,0,1-.772.6,8.009,8.009,0,0,1-1.022.605,7.8,7.8,0,0,1-2.637.849c-.994.083-2.093-.167-3.164-.172-1.071-.028-2.143-.033-3.153-.1-1-.044-1.949-.122-2.759-.178-1.615-.133-2.7-.272-2.7-.272a.231.231,0,0,1-.2-.255.242.242,0,0,1,.15-.183s1.021-.389,2.565-.888c.777-.244,1.676-.538,2.642-.816.972-.305,2.01-.561,3.042-.838,1.038-.25,2.054-.749,3.037-.894a7.754,7.754,0,0,1,2.765.205,7.335,7.335,0,0,1,1.132.355,8.284,8.284,0,0,1,.894.4,5.24,5.24,0,0,1,.788.483.306.306,0,0,1,.056.439v.006" transform="translate(14.155 59.819)" fill="#fefefe"/>
    <path id="パス_55" data-name="パス 55" d="M342.663,236.614a13.664,13.664,0,0,1-1.055,1.393c-.355.411-.788.9-1.31,1.41a22.412,22.412,0,0,1-1.8,1.6,27.327,27.327,0,0,1-2.243,1.649,19.216,19.216,0,0,1-2.665,1.51,24.076,24.076,0,0,1-3.086,1.11c-1.077.333-2.165.677-3.231,1.071-2.132.777-4.252,1.582-6.278,2.259-2.009.705-3.908,1.321-5.529,1.854-3.253,1.06-5.451,1.7-5.451,1.7a.318.318,0,0,1-.267-.566s1.882-1.3,4.752-3.164c1.438-.921,3.109-2,4.924-3.125,1.8-1.149,3.764-2.287,5.712-3.453.971-.583,1.926-1.2,2.859-1.832a24.636,24.636,0,0,1,2.809-1.7,18.563,18.563,0,0,1,2.853-1.116,27.679,27.679,0,0,1,2.692-.705c.855-.183,1.654-.3,2.381-.383a18.5,18.5,0,0,1,1.915-.128,12.915,12.915,0,0,1,1.749.056.376.376,0,0,1,.322.411.443.443,0,0,1-.056.15" transform="translate(3.814 70.583)" fill="#fefefe"/>
    <path id="パス_56" data-name="パス 56" d="M326.682,238.121a5.4,5.4,0,0,1-.078.921,9.321,9.321,0,0,1-.211.955,8.322,8.322,0,0,1-.394,1.127,7.724,7.724,0,0,1-1.477,2.343c-.7.7-1.7,1.221-2.526,1.9-.844.666-1.665,1.349-2.481,1.948s-1.576,1.16-2.232,1.632c-1.321.944-2.243,1.538-2.243,1.538a.227.227,0,0,1-.316-.072.21.21,0,0,1-.006-.233s.533-.955,1.393-2.332c.433-.688.938-1.488,1.5-2.326s1.177-1.715,1.793-2.592c.633-.861,1.088-1.893,1.749-2.637a8.561,8.561,0,0,1,3.347-2.076,7.127,7.127,0,0,1,.938-.266,5.925,5.925,0,0,1,.922-.139.311.311,0,0,1,.322.3h0" transform="translate(26.9 78.884)" fill="#fefefe"/>
    <path id="パス_57" data-name="パス 57" d="M326.966,236.841a5.5,5.5,0,0,1,.389-.838,9.279,9.279,0,0,1,.522-.827,8.381,8.381,0,0,1,.755-.921,7.806,7.806,0,0,1,2.193-1.7c.9-.422,2.021-.561,3.025-.921,1.016-.339,2.026-.7,3-.983.96-.3,1.876-.555,2.653-.772,1.565-.433,2.631-.677,2.631-.677a.234.234,0,0,1,.277.172.244.244,0,0,1-.078.227s-.827.711-2.109,1.71c-.639.5-1.388,1.077-2.2,1.677-.8.611-1.693,1.2-2.57,1.821-.888.594-1.671,1.41-2.542,1.882a7.819,7.819,0,0,1-2.67.749,8.085,8.085,0,0,1-1.188.055,7.929,7.929,0,0,1-.972-.072,5.91,5.91,0,0,1-.916-.183.318.318,0,0,1-.2-.394l.006-.005" transform="translate(82.694 39.658)" fill="#fefefe"/>
    <path id="パス_58" data-name="パス 58" d="M325.659,249.971a13.38,13.38,0,0,1,.516-1.676c.194-.505.427-1.116.744-1.765s.694-1.377,1.144-2.121a26.321,26.321,0,0,1,1.549-2.32,18.613,18.613,0,0,1,1.982-2.332,24.331,24.331,0,0,1,2.526-2.1c.9-.677,1.8-1.377,2.665-2.109,1.737-1.46,3.458-2.942,5.129-4.269,1.649-1.349,3.22-2.581,4.558-3.636,2.7-2.109,4.546-3.458,4.546-3.458a.317.317,0,0,1,.439.067.326.326,0,0,1,.005.372s-1.321,1.871-3.38,4.6c-1.038,1.36-2.243,2.953-3.564,4.624-1.3,1.693-2.748,3.431-4.18,5.2-.716.883-1.4,1.793-2.065,2.7a25.241,25.241,0,0,1-2.054,2.559,18.883,18.883,0,0,1-2.3,2.021,27.178,27.178,0,0,1-2.287,1.588c-.738.461-1.454.849-2.1,1.177s-1.255.572-1.754.772a13.2,13.2,0,0,1-1.665.544.366.366,0,0,1-.444-.433" transform="translate(76.796 16.58)" fill="#fefefe"/>
    <path id="パス_59" data-name="パス 59" d="M324.174,240.428a5.919,5.919,0,0,1-.239-.9,8,8,0,0,1-.133-.971,8.329,8.329,0,0,1-.017-1.188,7.741,7.741,0,0,1,.589-2.709c.422-.9,1.188-1.726,1.726-2.653.561-.91,1.1-1.837,1.665-2.676.544-.849,1.077-1.632,1.532-2.3.921-1.338,1.588-2.209,1.588-2.209a.229.229,0,0,1,.322-.044.225.225,0,0,1,.083.217s-.178,1.083-.511,2.67c-.178.794-.372,1.715-.616,2.7-.222.988-.522,2.015-.8,3.048-.3,1.027-.372,2.154-.738,3.081a7.806,7.806,0,0,1-1.56,2.287,8.208,8.208,0,0,1-.877.8,7.1,7.1,0,0,1-.794.572,5.382,5.382,0,0,1-.816.444.31.31,0,0,1-.405-.172h0" transform="translate(68.25 19.34)" fill="#fefefe"/>
    <path id="パス_60" data-name="パス 60" d="M320.162,308.369A92.428,92.428,0,0,1,450.947,245.98a86.577,86.577,0,0,0-132.179,96.068A92.123,92.123,0,0,1,320.162,308.369Z" transform="translate(28.813 46.013)" fill="#fefefe"/>
  </g>
</svg>
