<svg xmlns="http://www.w3.org/2000/svg" viewBox="0 0 260 40"><defs><style>.a{fill:#003670;}</style></defs><title>header_logo</title><path class="a" d="M24.94,35.19a1.49,1.49,0,0,0-1.5,1.48V40h3V36.67a1.48,1.48,0,0,0-1.48-1.48M20.1,20a5.94,5.94,0,0,0,5.95-5.93V0H14.14V14.07a5.94,5.94,0,0,0,6,5.93M32.38,40h3V35.19h-3ZM33.49,0V14.07a13.4,13.4,0,0,1-26.79,0V0H0V40H5.21V36.89A4.47,4.47,0,0,1,1.85,32.6V28.15H4.1V32.6a2.21,2.21,0,0,0,1.11,1.91V28.15H7.44v6.36A2.22,2.22,0,0,0,8.56,32.6V28.15h2.23V32.6a4.42,4.42,0,0,1-3.35,4.28V40h7.45V36.85a3.7,3.7,0,0,1-2.61-3.52V28.15h2.23v5.18a1.49,1.49,0,0,0,3,0V28.15h2.23v5.18a3.7,3.7,0,0,1-2.6,3.52V40h4.09V36.67a3.7,3.7,0,0,1,1.07-2.6,3.68,3.68,0,0,1-1.07-2.59V28.15h2.23v3.33a1.49,1.49,0,0,0,3,0V28.15h2.23v3.33a3.68,3.68,0,0,1-1.07,2.59,3.7,3.7,0,0,1,1.07,2.6V40h1.49V28.15h2.24V33h3V28.15h2.24V40h2.6V0Z"/><path class="a" d="M50.43,14.3H49.08V7.67a16,16,0,0,1-1.81,3.71,2.83,2.83,0,0,0-1-1.42A16.27,16.27,0,0,0,49,4.48H46.73V3.23h2.35V.15L50.41.2c.15,0,.35.08.35.21s0,.17-.33.3V3.23h1.63V4.48H50.43v.43A8.86,8.86,0,0,0,52.6,8.05a3.89,3.89,0,0,0-.92,1.18,11.63,11.63,0,0,1-1.25-1.95Zm7,0H56v-5A13.47,13.47,0,0,1,53,13.19a4.07,4.07,0,0,0-1.32-.88,15.67,15.67,0,0,0,4-4.79h-3V6.19H56v-2H54a13.43,13.43,0,0,1-.78,1.46,2.87,2.87,0,0,0-1.36-.55A10.11,10.11,0,0,0,53.68.89L55,1.26c.17,0,.28.09.28.19s-.16.18-.32.23a11.39,11.39,0,0,1-.42,1.25H56V.12L57.45.2c.21,0,.35,0,.35.17s-.11.18-.38.28V2.93h3.27v1.3H57.42v2H61V7.52H57.76a11,11,0,0,0,3.72,4.29,3.77,3.77,0,0,0-1,1.33,11.61,11.61,0,0,1-3-4Z"/><path class="a" d="M71,.3c.12,0,.33,0,.33.21s-.11.2-.4.32A19.49,19.49,0,0,0,71,3.18h3.48a15.74,15.74,0,0,0-2.4-1.87L73.05.19A14.7,14.7,0,0,1,75.57,2a6.32,6.32,0,0,0-.93,1.2h2V4.71H71.22a16.76,16.76,0,0,0,2.61,6.8c.42.61.73.79.86.79.29,0,.45-.49.58-1,.07-.17.24-1,.29-1.17a4.88,4.88,0,0,0,1.35,1.05c-.44,1.94-1.07,2.92-2,2.92-1.64,0-4.23-3.19-5.26-9.42H62.4V3.18h7.05C69.28,1,69.27.8,69.27.17ZM67.15,11.89a29.38,29.38,0,0,0,3.15-.69,5,5,0,0,0-.2,1.45A51.76,51.76,0,0,1,63.28,14c-.11.22-.19.36-.32.36s-.2-.18-.22-.3l-.33-1.52c.87-.08,1.8-.19,3-.35V8.29H62.78V6.83h6.84V8.29H67.15Z"/><path class="a" d="M89.32,5.17V6.62H81.41V5.19a17.43,17.43,0,0,1-2.1,1.15,5.8,5.8,0,0,0-1.24-1.29c2.19-.75,5.38-2.88,6.56-5l1.88.3a.24.24,0,0,1,.25.21c0,.13-.11.16-.4.23a15.17,15.17,0,0,0,6.41,4.14,4.59,4.59,0,0,0-1.11,1.37,18.1,18.1,0,0,1-6.33-4.44,19.06,19.06,0,0,1-3.89,3.36ZM79.13,12.36l2.33-.16a19.4,19.4,0,0,0,1.58-3h-4V7.78H91.88V9.23H87.94a24,24,0,0,1,3.8,4.13,6.5,6.5,0,0,0-1.31,1.13,20,20,0,0,0-1.22-1.69c-1,.16-3.29.46-4.28.57-.79.1-4.21.46-4.9.53-.07.22-.13.38-.33.38s-.18-.15-.21-.27Zm8.73-3.13H85.21a.34.34,0,0,1,0,.12c0,.24-.36.27-.54.27-.14.28-.78,1.48-1.38,2.43,1.46-.13,3.37-.28,4.78-.49a15.34,15.34,0,0,0-1.4-1.38Z"/><path class="a" d="M98.1,14.28H96.49V9.47a21.94,21.94,0,0,1-1.79,1.47,3.69,3.69,0,0,0-1.07-1.32A13.09,13.09,0,0,0,98.27,4.8H94.16V3.32h2.33V.21L98,.28c.21,0,.36.11.36.23s-.18.2-.3.26V3.32h1.68l.7.67a14.08,14.08,0,0,1-1.76,3,12.27,12.27,0,0,0,2.55,2,4.75,4.75,0,0,0-1,1.23A14.28,14.28,0,0,1,98.1,8.36Zm2.32-7.83V4.88h2.85V.2L105,.3c.13,0,.25,0,.25.16s-.11.19-.33.25V4.88h3V6.45h-3v5.73h3.28v1.5H99.71v-1.5h3.56V6.45Z"/><path class="a" d="M48.65,37.56v1.33h-2.4V21.16H61.31V38.89H58.9V37.56ZM58.9,23.3H48.65v4.81H58.9Zm0,6.92H48.65v5.12H58.9Z"/><path class="a" d="M76.39,34.11H80v2.1H76.39v3.53H74.16V36.21H70.65v-2.1h3.51V28.3a28.21,28.21,0,0,1-7.23,9.23,5.32,5.32,0,0,0-2.13-1.62A28,28,0,0,0,73.3,26h-8v-2h8.89V19.73l2.14.14c.26,0,.57.06.57.32s-.2.3-.48.4v3.49h9v2H77.19a27.39,27.39,0,0,0,8.57,9.58A5.82,5.82,0,0,0,84,37.38a25.27,25.27,0,0,1-7.6-9.2Z"/><path class="a" d="M105.05,39.64h-1.93V32.1A22.43,22.43,0,0,1,101,36.45a4.71,4.71,0,0,0-1.84-1.26,21.58,21.58,0,0,0,3.74-6.68H99.75V26.77h3.37v-7l2,.13c.12,0,.38,0,.38.19s-.23.31-.42.4v6.26h2.82v1.74h-2.69a17.34,17.34,0,0,0,2.71,4.13,8.78,8.78,0,0,0-1.37,1.63,22.19,22.19,0,0,1-1.47-3Zm-3.29-18.22a37.78,37.78,0,0,1,1,4.25,8.44,8.44,0,0,0-2,.52A24.35,24.35,0,0,0,99.92,22Zm7.09,1.51v-.56a.81.81,0,0,1-.59.14c-.13.44-.68,2.31-.81,2.69s-.33.84-.45,1.13a8.59,8.59,0,0,0-1.79-.66,20.79,20.79,0,0,0,1.35-4.25l2,.51a.6.6,0,0,1,.3.13v-.71h3.74V19.77l2.11.1c.22,0,.57,0,.57.28s-.27.31-.51.4v.8h4.16v1.58h-4.16v1.12h3.45v1.51h-3.45v1.27h4.84v1.61h-11V26.83h4V25.56h-3.27V24.05h3.27V22.93Zm2.43,13.25v3.49H109.2V29.49h9.09v7.76c0,2-.38,2.35-3.61,2.53a4.77,4.77,0,0,0-.83-2.05c.58,0,1.36.06,1.42.06,1,0,1-.16,1-.77v-.84Zm5-5.14h-5v1.18h5Zm0,2.57h-5v1.15h5Z"/><path class="a" d="M127.39,39.75h-2.16V32.06a19.38,19.38,0,0,1-2.35,2,4.25,4.25,0,0,0-1.51-1.7,17.14,17.14,0,0,0,6-6.2H122v-2h3.29V19.81l2.17.13c.19,0,.46.08.46.26a.25.25,0,0,1-.16.24c-.11.07-.24.11-.3.15v3.56h2.13l1,.87a24.71,24.71,0,0,1-2.79,4.13,12.47,12.47,0,0,0,3.12,3c-.31.36-1,1.23-1.37,1.65a13.13,13.13,0,0,1-2.16-2.12Zm9.9,0h-2.13V33.93h-2v1h-2.12V23.7h4.09v-4l2.13.13c.17,0,.43.06.43.25s-.22.31-.43.4V23.7h4.31V34.82h-2.17v-.89h-2.14Zm-2.13-14.1h-2v2.24h2Zm0,4.07h-2V32h2Zm2.13-1.82h2.14V25.65h-2.14Zm0,4.09h2.14V29.72h-2.14Z"/><path class="a" d="M152,23.29v2.06h-2.39v3.78c1-.39,1.34-.52,2.3-.91a7.25,7.25,0,0,0,0,.91,4.13,4.13,0,0,0,.1,1.09c-.91.46-2.07.89-2.36,1v6c0,1.77-.3,2.62-4,2.53a4.78,4.78,0,0,0-.71-2.32,10.75,10.75,0,0,0,1.38.13c1,0,1-.13,1-1.28V32.06c-.84.3-1.46.51-2.24.76,0,.15-.09.61-.42.61s-.24-.23-.28-.4l-.44-2.2c1.66-.43,2.1-.56,3.38-1V25.35H144.3V23.29h3.11V19.68l2.4.16c.37,0,.42.18.42.31s-.27.39-.58.48v2.66Zm10.24,4.49.94.9a17.89,17.89,0,0,1-3.91,6.55,15,15,0,0,0,5.45,2.7,5.56,5.56,0,0,0-1.45,2,17.55,17.55,0,0,1-5.69-3.12A20.56,20.56,0,0,1,152.06,40a7.42,7.42,0,0,0-1.38-2,15.12,15.12,0,0,0,5.45-2.71,15,15,0,0,1-2.58-3.87l1.77-1.19a13.66,13.66,0,0,0,2.43,3.61,11.61,11.61,0,0,0,2.65-4.06H153v-2h3.87V25.2h-4.12V23.13h4.12v-3.4l2.42.17c.12,0,.36.09.36.26s-.26.35-.55.43v2.54h5.21V25.2h-5.21v2.58Z"/><path class="a" d="M172.21,24.24h3v-4.5l2,.1c.49,0,.55.15.55.26s-.1.24-.39.4v3.74h2.91v1.49h6.35v2H185V37.4c0,2.41-1.86,2.41-3.19,2.41a5.35,5.35,0,0,1-1-.07,4.49,4.49,0,0,0-.74-2.28,13.2,13.2,0,0,0,1.63.13c1,0,1.12-.13,1.12-.82V27.72h-2.91v-1.5h-2.51V39.75h-2.13V26.22h-3v-.63a12.67,12.67,0,0,1-1.28,2.29c.41.17.46.19.46.32s-.17.26-.42.37V39.72h-2.23V30.64c-.66.74-.93,1-1.26,1.37a5.52,5.52,0,0,0-1.76-1.35,20.29,20.29,0,0,0,5-6.49l1.45.72Zm.06-3.33a.46.46,0,0,1,.23.33c0,.23-.13.21-.64.21a22.4,22.4,0,0,1-4.23,3.77A3.83,3.83,0,0,0,166,23.75a15.57,15.57,0,0,0,4.65-4Zm2.18,7.43c.2,0,.59.06.59.3s-.11.24-.52.32a26.84,26.84,0,0,1-1.27,7,4,4,0,0,0-1.86-.52,22,22,0,0,0,1.27-7.26Zm4.66-8a19.51,19.51,0,0,1,1,2.89,9.15,9.15,0,0,0-1.69.64,13.35,13.35,0,0,0-.9-2.9Zm.7,7.75a33.93,33.93,0,0,1,1.12,6.85,7,7,0,0,0-1.87.59,38.2,38.2,0,0,0-1-7.09ZM186.2,23h-5.73V21h5.73Z"/><path class="a" d="M197.67,27.48V37.65h-2v-.79h-2.32V39.3h-2V32.24a10.62,10.62,0,0,1-1.47,2,6.3,6.3,0,0,0-1.88-1.53,17.94,17.94,0,0,0,4.54-10.25h-3.31v-2h8.9v2h-3.41a23.49,23.49,0,0,1-1.14,5.05Zm-4.29,7.42h2.32V29.54h-2.32ZM207,27.55h1.91v2H207V39.72h-2.15V29.55H202.5c-.1,2.86-.29,7-4,10.38a4.85,4.85,0,0,0-1.92-1.28c1.6-1.34,3.73-3.34,3.84-9.1h-1.89v-2h1.89V22.44h-1.32v-2h9.33v2H207Zm-2.15-5.11h-2.3v5.11h2.3Z"/><path class="a" d="M230.77,21.42v4.41h-1.72c-.56,2.1-1.33,2.82-2.93,2.82h-2.49c-1,0-1.45-.24-1.74-.68,0,.33-.34.44-.63.49a14.66,14.66,0,0,1-.09,1.76l5.5-.1c0,.17-.57,5.74-.57,6.47,0,.58.24.72,1.28.72s1.48-.07,1.85-2.7a4.54,4.54,0,0,0,2.13,1.08c-.81,3.68-1.54,3.75-4.34,3.75-1.9,0-3.22,0-3.22-2.23,0-.58.37-4.46.42-4.94l-3.39.06c-.34,1.6-1.48,6-8.65,7.56a5.76,5.76,0,0,0-1.32-2.06c1.45-.16,6.32-.88,7.58-5.46l-6.31.12L212,30.38l6.81-.11a16.72,16.72,0,0,0,.11-2.69l2.12.11a1.31,1.31,0,0,1,.77.18,2.31,2.31,0,0,1-.24-1.16v-3.3h-3.22l1.6.64c.22.08.37.15.37.36s-.43.26-.64.26a11.86,11.86,0,0,1-6,4.92,5.67,5.67,0,0,0-1.29-1.83A8.73,8.73,0,0,0,218,23.41h-4.26V26H211.5V21.42h8.43V19.68l2.43,0c.27,0,.5.07.5.26s-.31.38-.55.43v1Zm-6.91,2v2.37c0,.69.2.89.78.89h1.08c.81,0,1.07-.42,1.26-1.82a4.48,4.48,0,0,0,1.51.76v-2.2Z"/><path class="a" d="M242.93,24.67v7.17h-5.8c-.07,1.48-.18,5.11-1.8,8a7.59,7.59,0,0,0-2.25-.79c1.51-2.23,1.83-4.84,1.83-7.87V24.67Zm.63-2h-9.78v-2h9.78Zm-6.43,7.17h3.63V26.65h-3.63Zm14.05,9.76H249V28.46h-2.45c0,2.42,0,7.43-4.71,11.45a6.86,6.86,0,0,0-1.95-1.37,10.26,10.26,0,0,0,3.28-3.79,11.35,11.35,0,0,0,1.19-5.85V21l1.73.18a18.46,18.46,0,0,0,5.81-1.62l1.46,1.95a.47.47,0,0,1,.08.26.21.21,0,0,1-.23.22,1.44,1.44,0,0,1-.58-.22,25.28,25.28,0,0,1-6.08,1.41v3.18h7v2.09h-2.39Z"/><path class="a" d="M94.55,31.24a1.68,1.68,0,1,1-1.68-1.67,1.67,1.67,0,0,1,1.68,1.67"/></svg>