<svg xmlns="http://www.w3.org/2000/svg" viewBox="0 0 30 30"><defs><style>.a{fill:none;stroke:#fff;stroke-miterlimit:10;stroke-width:1.5px;}.b{fill:#fff;}</style></defs><title>header_fb</title><circle class="a" cx="15" cy="15" r="14"/><path class="b" d="M18.09,14.74c0,.48-.1.57-.57.57h-.95c-.48,0-.57.1-.57.57v5.53c0,.47-.1.57-.57.57H13.79c-.47,0-.57-.1-.57-.57V15.88c0-.47-.09-.57-.57-.57H12.5c-.47,0-.57-.09-.57-.57V13.39c0-.47.1-.57.57-.57h.21c.44,0,.51-.07.51-.53v-.55c0-2,1.24-3.31,3.8-3.31a4.87,4.87,0,0,1,.55,0c.42,0,.52.14.52.57v1.71c0,.29-.08.38-.31.38l-.47,0c-1,0-1.31.44-1.31,1.14v.23c0,.25.11.36.36.36h1.16c.47,0,.57.1.57.57Z"/></svg>