<svg xmlns="http://www.w3.org/2000/svg" width="60.003" height="60" viewBox="0 0 60.003 60">
  <path id="パス_234" data-name="パス 234" d="M30,0A30,30,0,1,0,60,30,30,30,0,0,0,30,0Zm0,8.97a9.923,9.923,0,1,1-9.922,9.923A9.924,9.924,0,0,1,30,8.971Zm-.007,43.186A22.018,22.018,0,0,1,15.657,46.87a4.229,4.229,0,0,1-1.484-3.214,10.007,10.007,0,0,1,10.056-10H35.776a9.993,9.993,0,0,1,10.04,10,4.218,4.218,0,0,1-1.483,3.213A22.01,22.01,0,0,1,29.995,52.157Z" transform="translate(0 -0.001)" fill="#020202"/>
</svg>
